<svg id="Layer_1" data-name="Layer 1" xmlns="http://www.w3.org/2000/svg" viewBox="0 0 124.38 108"><defs><style>.cls-1{fill:#3acc6c;}.cls-2,.cls-4{opacity:0.1;isolation:isolate;}.cls-3{fill:#ffd037;}.cls-4{fill:#38d39f;}.cls-5{fill:#65617d;}.cls-6{fill:#9d9cb5;}</style></defs><title>flowerPot2</title><path class="cls-1" d="M580,275.73s6,7.78-2.74,19.52-15.87,21.66-13,29c0,0,13.12-21.81,23.79-22.11S591.77,288.85,580,275.73Z" transform="translate(-502.14 -275.73)"/><path class="cls-2" d="M580,275.73a9.61,9.61,0,0,1,1.22,2.44c10.41,12.24,16,23.66,6,24-9.33.26-20.52,16.94-23.19,21.15a7.21,7.21,0,0,0,.31,1s13.12-21.81,23.79-22.11S591.77,288.85,580,275.73Z" transform="translate(-502.14 -275.73)"/><path class="cls-3" d="M591.09,285.65c0,2.73-.31,5-.69,5s-.68-2.22-.68-5,.38-1.45.76-1.45S591.09,282.91,591.09,285.65Z" transform="translate(-502.14 -275.73)"/><path class="cls-3" d="M594.88,288.91c-2.4,1.31-4.5,2.11-4.68,1.77s1.62-1.66,4-3,1.45-.36,1.63,0S597.29,287.6,594.88,288.91Z" transform="translate(-502.14 -275.73)"/><path class="cls-1" d="M548.61,275.73s-5.94,7.78,2.75,19.52,15.86,21.66,13,29c0,0-13.11-21.81-23.79-22.11S536.87,288.85,548.61,275.73Z" transform="translate(-502.14 -275.73)"/><path class="cls-2" d="M548.61,275.73a9.92,9.92,0,0,0-1.21,2.44c-10.42,12.24-16,23.66-5.95,24,9.32.26,20.51,16.94,23.19,21.15a7.26,7.26,0,0,1-.32,1s-13.11-21.9-23.81-22.2S536.87,288.85,548.61,275.73Z" transform="translate(-502.14 -275.73)"/><path class="cls-3" d="M537.56,285.65c0,2.73.3,5,.68,5s.69-2.22.69-5-.38-1.45-.76-1.45S537.56,282.91,537.56,285.65Z" transform="translate(-502.14 -275.73)"/><path class="cls-3" d="M533.76,288.91c2.41,1.31,4.5,2.11,4.68,1.77s-1.62-1.66-4-3-1.46-.36-1.64,0S531.36,287.6,533.76,288.91Z" transform="translate(-502.14 -275.73)"/><ellipse class="cls-4" cx="62.19" cy="98.46" rx="62.19" ry="9.54"/><path class="cls-5" d="M596.33,313.75l-.3,2.43-.41,3.43-.18,1.43-.41,3.43-.19,1.43-.41,3.43-4.76,39c-.43,3.48-6.12,6.2-13,6.2H552c-6.87,0-12.55-2.72-13-6.2l-4.76-39-.42-3.43-.17-1.43-.43-3.43-.17-1.43-.42-3.43-.3-2.43c-.23-2,2.84-3.64,6.73-3.64h50.59C593.51,310.11,596.58,311.78,596.33,313.75Z" transform="translate(-502.14 -275.73)"/><polygon class="cls-6" points="93.9 40.45 93.48 43.88 30.89 43.88 30.48 40.45 93.9 40.45"/><polygon class="cls-6" points="93.31 45.31 92.89 48.74 31.49 48.74 31.07 45.31 93.31 45.31"/><polygon class="cls-6" points="92.71 50.17 92.29 53.6 32.08 53.6 31.66 50.17 92.71 50.17"/></svg>